<svg width="1331" height="1074" viewBox="0 0 1331 1074" fill="none" xmlns="http://www.w3.org/2000/svg">
<g filter="url(#filter0_d_156_133)">
<rect x="116" y="112" width="1098.37" height="842" fill="#FAFBFB"/>
</g>
<g clip-path="url(#clip0_156_133)">
<path d="M778.631 869.562C792.514 878.867 808.332 925.905 808.332 925.905C808.332 925.905 758.816 929.134 744.936 919.834C741.634 917.622 738.8 914.781 736.596 911.473C734.391 908.166 732.86 904.456 732.09 900.557C731.32 896.657 731.325 892.644 732.106 888.747C732.886 884.85 734.427 881.144 736.64 877.843C738.853 874.541 741.695 871.708 745.003 869.504C748.311 867.301 752.021 865.772 755.92 865.003C759.82 864.234 763.832 864.241 767.729 865.023C771.626 865.805 775.33 867.348 778.631 869.562Z" fill="#F1F1F1"/>
<path d="M808.896 925.551L808.12 926.17C779.824 890.669 737.125 878.407 736.697 878.287L736.964 877.332C737.395 877.452 780.394 889.793 808.896 925.551Z" fill="white"/>
<path d="M852.88 850.797C851.994 873.913 808.056 926.7 808.056 926.7C808.056 926.7 768.306 870.691 769.188 847.583C769.614 836.484 774.432 826.009 782.581 818.462C790.73 810.915 801.543 806.914 812.641 807.34C823.739 807.767 834.213 812.584 841.759 820.734C849.306 828.884 853.306 839.698 852.88 850.797Z" fill="#F1F1F1"/>
<path d="M808.882 927.108L807.59 926.643C828.877 867.525 812.328 808.304 812.158 807.713L813.478 807.334C813.649 807.929 830.324 867.561 808.882 927.108Z" fill="white"/>
<path d="M695.108 719.269H318.528C311.819 719.262 305.387 716.593 300.643 711.848C295.899 707.104 293.23 700.671 293.223 693.962V263.564C293.23 256.854 295.899 250.422 300.643 245.677C305.387 240.933 311.819 238.264 318.528 238.256H695.108C701.817 238.264 708.249 240.933 712.993 245.677C717.737 250.422 720.405 256.854 720.413 263.564V693.962C720.405 700.671 717.737 707.104 712.993 711.849C708.249 716.593 701.817 719.262 695.108 719.269Z" fill="#E6E6E6"/>
<path d="M677.511 698.177H336.124C330.168 698.17 324.457 695.8 320.245 691.588C316.032 687.375 313.663 681.664 313.656 675.706V281.82C313.663 275.862 316.032 270.151 320.245 265.938C324.457 261.725 330.168 259.356 336.124 259.349H677.511C683.468 259.356 689.179 261.725 693.391 265.938C697.603 270.151 699.973 275.862 699.979 281.82V675.706C699.973 681.664 697.603 687.375 693.391 691.588C689.179 695.8 683.468 698.17 677.511 698.177Z" fill="white"/>
<path d="M663.93 315.41H491.71C490.972 315.411 490.241 315.267 489.559 314.985C488.876 314.703 488.256 314.289 487.734 313.768C487.211 313.246 486.797 312.626 486.514 311.944C486.231 311.262 486.086 310.531 486.086 309.793C486.086 309.055 486.231 308.324 486.514 307.642C486.797 306.959 487.211 306.34 487.734 305.818C488.256 305.296 488.876 304.883 489.559 304.601C490.241 304.319 490.972 304.175 491.71 304.176H663.93C664.668 304.175 665.4 304.319 666.082 304.601C666.764 304.883 667.384 305.296 667.907 305.818C668.429 306.34 668.844 306.959 669.126 307.642C669.409 308.324 669.555 309.055 669.555 309.793C669.555 310.531 669.409 311.262 669.126 311.944C668.844 312.626 668.429 313.246 667.907 313.768C667.384 314.289 666.764 314.703 666.082 314.985C665.4 315.267 664.668 315.411 663.93 315.41Z" fill="#E4E4E4"/>
<path d="M663.93 337.607H491.71C490.221 337.607 488.792 337.015 487.739 335.961C486.685 334.908 486.094 333.479 486.094 331.989C486.094 330.499 486.685 329.07 487.739 328.017C488.792 326.963 490.221 326.372 491.71 326.372H663.93C665.42 326.372 666.848 326.963 667.902 328.017C668.955 329.07 669.547 330.499 669.547 331.989C669.547 333.479 668.955 334.908 667.902 335.961C666.848 337.015 665.42 337.607 663.93 337.607Z" fill="#E4E4E4"/>
<path d="M566.364 359.803H491.71C490.221 359.803 488.792 359.211 487.739 358.157C486.685 357.104 486.094 355.675 486.094 354.185C486.094 352.695 486.685 351.267 487.739 350.213C488.792 349.16 490.221 348.568 491.71 348.568H566.364C567.853 348.568 569.282 349.16 570.335 350.213C571.389 351.267 571.98 352.695 571.98 354.185C571.98 355.675 571.389 357.104 570.335 358.157C569.282 359.211 567.853 359.803 566.364 359.803Z" fill="#E4E4E4"/>
<path d="M643.162 449.451H371.281C370.543 449.452 369.812 449.307 369.129 449.025C368.447 448.744 367.827 448.33 367.304 447.808C366.782 447.287 366.368 446.667 366.085 445.985C365.802 445.303 365.656 444.572 365.656 443.834C365.656 443.095 365.802 442.364 366.085 441.682C366.368 441 366.782 440.38 367.304 439.859C367.827 439.337 368.447 438.923 369.129 438.642C369.812 438.36 370.543 438.215 371.281 438.216H643.162C643.901 438.215 644.632 438.36 645.314 438.642C645.997 438.923 646.617 439.337 647.139 439.859C647.662 440.38 648.076 441 648.359 441.682C648.642 442.364 648.787 443.095 648.787 443.834C648.787 444.572 648.642 445.303 648.359 445.985C648.076 446.667 647.662 447.287 647.139 447.808C646.617 448.33 645.997 448.744 645.314 449.025C644.632 449.307 643.901 449.452 643.162 449.451Z" fill="#E4E4E4"/>
<path d="M643.162 471.647H371.281C369.791 471.647 368.363 471.055 367.309 470.002C366.256 468.948 365.664 467.519 365.664 466.03C365.664 464.54 366.256 463.111 367.309 462.057C368.363 461.004 369.791 460.412 371.281 460.412H643.162C644.652 460.412 646.081 461.004 647.134 462.057C648.187 463.111 648.779 464.54 648.779 466.03C648.779 467.519 648.187 468.948 647.134 470.002C646.081 471.055 644.652 471.647 643.162 471.647Z" fill="#E4E4E4"/>
<path d="M643.162 522.032H371.281C369.792 522.032 368.363 521.44 367.31 520.387C366.256 519.333 365.665 517.904 365.665 516.415C365.665 514.925 366.256 513.496 367.31 512.443C368.363 511.389 369.792 510.797 371.281 510.797H643.162C644.652 510.797 646.081 511.389 647.134 512.443C648.187 513.496 648.779 514.925 648.779 516.415C648.779 517.904 648.187 519.333 647.134 520.387C646.081 521.44 644.652 522.032 643.162 522.032Z" fill="#E4E4E4"/>
<path d="M643.162 544.228H371.281C369.791 544.228 368.363 543.636 367.309 542.583C366.256 541.529 365.664 540.1 365.664 538.611C365.664 537.121 366.256 535.692 367.309 534.638C368.363 533.585 369.791 532.993 371.281 532.993H643.162C644.652 532.993 646.081 533.585 647.134 534.638C648.187 535.692 648.779 537.121 648.779 538.611C648.779 540.1 648.187 541.529 647.134 542.583C646.081 543.636 644.652 544.228 643.162 544.228Z" fill="#E4E4E4"/>
<path d="M643.162 594.613H371.281C369.792 594.613 368.363 594.021 367.31 592.968C366.256 591.914 365.665 590.485 365.665 588.996C365.665 587.506 366.256 586.077 367.31 585.024C368.363 583.97 369.792 583.378 371.281 583.378H643.162C644.652 583.378 646.081 583.97 647.134 585.024C648.187 586.077 648.779 587.506 648.779 588.996C648.779 590.485 648.187 591.914 647.134 592.968C646.081 594.021 644.652 594.613 643.162 594.613Z" fill="#E4E4E4"/>
<path d="M643.162 616.809H371.281C369.791 616.809 368.363 616.217 367.309 615.164C366.256 614.11 365.664 612.682 365.664 611.192C365.664 609.702 366.256 608.273 367.309 607.22C368.363 606.166 369.791 605.574 371.281 605.574H643.162C644.652 605.574 646.081 606.166 647.134 607.22C648.187 608.273 648.779 609.702 648.779 611.192C648.779 612.682 648.187 614.11 647.134 615.164C646.081 616.217 644.652 616.809 643.162 616.809Z" fill="#E4E4E4"/>
<path d="M643.114 678.292H568.461C566.971 678.292 565.543 677.701 564.489 676.647C563.436 675.594 562.844 674.165 562.844 672.675C562.844 671.185 563.436 669.756 564.489 668.703C565.543 667.649 566.971 667.057 568.461 667.057H643.114C644.604 667.057 646.033 667.649 647.086 668.703C648.139 669.756 648.731 671.185 648.731 672.675C648.731 674.165 648.139 675.594 647.086 676.647C646.033 677.701 644.604 678.292 643.114 678.292Z" fill="#000080"/>
<path d="M444.037 332.647C444.052 344.71 439.969 356.421 432.456 365.859C430.026 368.931 427.259 371.721 424.208 374.176C415.881 380.932 405.706 385.013 395.019 385.885C393.565 386.011 392.098 386.068 390.62 386.068C387.692 386.069 384.768 385.827 381.88 385.346C380.861 385.186 379.864 384.991 378.867 384.762C377.132 384.376 375.419 383.898 373.735 383.33C368.274 381.512 363.143 378.819 358.545 375.356C357.32 374.44 356.14 373.466 354.994 372.435C353.593 371.192 352.266 369.869 351.019 368.471C350.687 368.104 350.355 367.726 350.034 367.348C344.445 360.806 340.519 353.009 338.591 344.622C336.663 336.236 336.79 327.507 338.961 319.18C341.132 310.853 345.283 303.174 351.06 296.797C356.838 290.419 364.07 285.533 372.143 282.553C380.215 279.573 388.888 278.588 397.423 279.682C405.958 280.776 414.102 283.916 421.162 288.835C428.222 293.754 433.989 300.307 437.972 307.935C441.955 315.564 444.036 324.041 444.037 332.647Z" fill="#E4E4E4"/>
<path d="M388.761 350.878C400.851 350.878 410.651 341.077 410.651 328.986C410.651 316.896 400.851 307.094 388.761 307.094C376.672 307.094 366.871 316.896 366.871 328.986C366.871 341.077 376.672 350.878 388.761 350.878Z" fill="#9E616A"/>
<path d="M413.13 318.315C413.23 316.359 412.678 314.425 411.561 312.816L410.771 311.693C407.918 306.194 403.21 301.245 399.762 297.624C397.173 294.909 394.584 293.603 392.098 293.729C390.289 293.858 388.604 294.699 387.413 296.066C384.139 295.866 380.878 296.626 378.03 298.252C375.181 299.878 372.868 302.299 371.375 305.22C360.894 310.754 364.021 327.09 364.055 327.262L366.587 331.513L366.874 330.974C366.874 330.963 366.908 330.917 366.954 330.825C367.447 329.943 370.127 325.04 371.937 321.935C372.598 320.876 373.476 319.97 374.514 319.277C376.21 318.119 378.158 317.384 380.196 317.135L385.763 316.413L383.656 319.575H398.822L404.653 318.888C405.238 321.282 409.866 330.573 410.427 331.696L410.472 331.788L410.782 332.418L412.512 327.663C413.522 324.653 413.735 321.432 413.13 318.315Z" fill="#2F2E41"/>
<path d="M358.706 375.471C359.645 374.234 364.514 368.46 375.717 365.401L381.651 358.79L405.444 354.998L417.552 361.689L432.455 365.859C430.025 368.931 427.259 371.721 424.208 374.176C415.88 380.932 405.706 385.013 395.019 385.885C393.564 386.011 392.098 386.068 390.62 386.068C387.692 386.069 384.769 385.827 381.88 385.346C380.86 385.186 379.864 384.991 378.867 384.762C377.132 384.376 375.419 383.898 373.735 383.33C368.335 381.536 363.26 378.882 358.706 375.471C358.649 375.437 358.603 375.391 358.545 375.356L358.706 375.471Z" fill="#000080"/>
<path d="M810.237 172.795H203.399C202.498 172.794 201.634 172.436 200.997 171.798C200.359 171.161 200.001 170.297 200 169.396V149.399C200.001 148.498 200.359 147.634 200.997 146.997C201.634 146.359 202.498 146.001 203.399 146H810.237C811.138 146.001 812.002 146.359 812.639 146.997C813.276 147.634 813.635 148.498 813.636 149.399V169.396C813.635 170.297 813.276 171.161 812.639 171.798C812.002 172.436 811.138 172.794 810.237 172.795Z" fill="#000080"/>
<path d="M219.726 163.249C222.391 163.249 224.552 161.088 224.552 158.422C224.552 155.757 222.391 153.596 219.726 153.596C217.061 153.596 214.9 155.757 214.9 158.422C214.9 161.088 217.061 163.249 219.726 163.249Z" fill="white"/>
<path d="M238.044 163.249C240.709 163.249 242.869 161.088 242.869 158.422C242.869 155.757 240.709 153.596 238.044 153.596C235.378 153.596 233.218 155.757 233.218 158.422C233.218 161.088 235.378 163.249 238.044 163.249Z" fill="white"/>
<path d="M256.362 163.249C259.027 163.249 261.188 161.088 261.188 158.422C261.188 155.757 259.027 153.596 256.362 153.596C253.697 153.596 251.536 155.757 251.536 158.422C251.536 161.088 253.697 163.249 256.362 163.249Z" fill="white"/>
<path d="M792.29 155.1H771.196C770.784 155.097 770.39 154.931 770.1 154.638C769.81 154.345 769.647 153.95 769.647 153.538C769.647 153.126 769.81 152.73 770.1 152.438C770.39 152.145 770.784 151.979 771.196 151.975H792.29C792.496 151.973 792.7 152.013 792.892 152.09C793.083 152.168 793.256 152.283 793.403 152.428C793.549 152.573 793.666 152.746 793.745 152.937C793.824 153.127 793.865 153.331 793.865 153.538C793.865 153.744 793.824 153.948 793.745 154.139C793.666 154.329 793.549 154.502 793.403 154.647C793.256 154.793 793.083 154.908 792.892 154.985C792.7 155.063 792.496 155.102 792.29 155.1Z" fill="white"/>
<path d="M792.289 160.96H771.196C770.782 160.96 770.384 160.795 770.091 160.502C769.798 160.209 769.634 159.812 769.634 159.397C769.634 158.983 769.798 158.585 770.091 158.292C770.384 157.999 770.782 157.835 771.196 157.835H792.289C792.496 157.833 792.7 157.872 792.891 157.95C793.083 158.028 793.256 158.142 793.403 158.288C793.549 158.433 793.666 158.606 793.745 158.796C793.824 158.987 793.865 159.191 793.865 159.397C793.865 159.604 793.824 159.808 793.745 159.998C793.666 160.189 793.549 160.362 793.403 160.507C793.256 160.652 793.083 160.767 792.891 160.845C792.7 160.923 792.496 160.962 792.289 160.96Z" fill="white"/>
<path d="M792.289 166.82H771.196C770.784 166.816 770.39 166.65 770.1 166.358C769.809 166.065 769.646 165.669 769.646 165.257C769.646 164.845 769.809 164.449 770.1 164.157C770.39 163.864 770.784 163.698 771.196 163.695H792.289C792.702 163.698 793.096 163.864 793.386 164.157C793.676 164.449 793.839 164.845 793.839 165.257C793.839 165.669 793.676 166.065 793.386 166.358C793.096 166.65 792.702 166.816 792.289 166.82Z" fill="white"/>
<path d="M958.891 683.734C957.92 682.678 957.193 681.422 956.76 680.054C956.327 678.686 956.199 677.24 956.386 675.817C956.573 674.394 957.069 673.03 957.84 671.82C958.61 670.61 959.637 669.584 960.848 668.814L952.805 634.878L969.826 641.097L974.854 672.369C976.013 674.489 976.354 676.96 975.814 679.314C975.273 681.668 973.887 683.742 971.92 685.143C969.952 686.544 967.539 687.174 965.138 686.914C962.736 686.655 960.514 685.523 958.891 683.734Z" fill="#9E616A"/>
<path d="M917.959 541.528L924.79 559.095C924.79 559.095 921.863 576.662 926.742 580.566C931.621 584.47 929.67 584.469 929.67 587.397C929.838 589.497 930.446 591.539 931.455 593.388C932.463 595.238 933.85 596.854 935.525 598.133C939.428 601.061 956.994 660.593 956.994 660.593H974.559C973.991 656.057 973.991 651.467 974.559 646.93C975.535 640.098 971.631 622.531 969.68 619.604C967.728 616.676 969.68 612.772 969.68 606.916C969.68 601.061 965.776 598.133 965.776 588.373C965.776 578.614 954.066 502.49 955.042 493.707C956.018 484.923 945.283 477.115 945.283 477.115H935.525L917.959 541.528Z" fill="#E4E4E4"/>
<path d="M962.881 912.693H949.9L943.724 862.614L962.883 862.615L962.881 912.693Z" fill="#9E616A"/>
<path d="M966.192 925.278L924.333 925.276V924.747C924.333 920.425 926.05 916.281 929.105 913.225C932.161 910.17 936.305 908.453 940.626 908.453L948.273 902.651L962.539 908.454L966.193 908.454L966.192 925.278Z" fill="#2F2E41"/>
<path d="M844.122 912.321L831.931 907.86L843.333 858.708L861.327 865.293L844.122 912.321Z" fill="#9E616A"/>
<path d="M842.908 925.278L803.597 910.895L803.779 910.397C805.264 906.339 808.3 903.037 812.219 901.217C816.138 899.397 820.62 899.208 824.678 900.693L833.852 897.872L845.257 908.223L848.688 909.478L842.908 925.278Z" fill="#2F2E41"/>
<path d="M934.28 678.522C934.28 678.522 925.497 721.463 940.135 717.56C954.773 713.656 948.918 676.57 948.918 676.57L934.28 678.522Z" fill="#A0616A"/>
<path d="M869.874 642.9C869.874 642.9 858.164 658.515 858.164 667.298C858.164 676.082 854.26 754.157 854.26 754.157C854.26 754.157 824.631 870.422 830.486 876.277C836.341 882.133 856.834 887.989 859.762 885.061C862.689 882.133 888.415 761.965 888.415 761.965L912.811 696.577L935.256 790.267L937.208 889.814C937.208 889.814 961.604 895.67 966.483 891.766C971.362 887.862 972.338 793.195 966.483 760.013C960.628 726.831 967.459 650.707 967.459 650.707L869.874 642.9Z" fill="#2F2E41"/>
<path d="M909.009 434.535C925.177 434.535 938.284 421.427 938.284 405.257C938.284 389.087 925.177 375.979 909.009 375.979C892.84 375.979 879.733 389.087 879.733 405.257C879.733 421.427 892.84 434.535 909.009 434.535Z" fill="#9E616A"/>
<path d="M871.826 476.989C871.826 476.989 880.255 464.428 896.844 447.837C905.627 444.909 920.844 446.616 926.12 447.837C950.516 480.043 952.051 477.903 958.402 495.898C960.049 500.564 960.872 505.047 960.14 508.707C957.212 523.346 966.483 641.924 967.459 645.828C968.435 649.731 975.266 654.611 968.435 654.611C961.604 654.611 858.163 650.707 860.115 647.78C862.067 644.852 871.826 476.989 871.826 476.989Z" fill="#E4E4E4"/>
<path opacity="0.1" d="M867.357 646.492L896.71 581.902L882.033 650.594L867.357 646.492Z" fill="black"/>
<path d="M900.152 432.382C902.893 430.342 905.417 428.025 907.683 425.469C909.959 422.889 911.384 419.67 911.763 416.252C911.93 414.547 911.662 412.828 910.985 411.254C910.309 409.681 909.245 408.305 907.893 407.253C905.105 405.283 900.853 405.398 898.538 407.908C899.656 404.293 900.678 400.029 898.413 396.998C896.352 394.239 892.507 393.77 889.186 392.861C882.781 391.077 877.27 386.971 873.728 381.344L879.368 382.511L878.739 378.49L883.413 380.116L883.454 374.515L888.277 377.214C894.183 371.8 901.965 368.9 909.973 369.13C914.013 369.197 917.97 370.284 921.477 372.288C924.992 374.322 927.654 377.557 928.973 381.398C931.456 378.82 935.882 379.019 938.84 381.034C941.798 383.048 943.536 386.418 944.729 389.792C947.091 396.263 947.641 403.256 946.319 410.016C944.958 416.793 941.307 422.894 935.979 427.297C931.086 431.032 925.261 433.349 919.14 433.996C913.044 434.628 906.888 434.365 900.868 433.215" fill="#2F2E41"/>
<path d="M858.218 683.607C859.189 682.551 859.916 681.295 860.349 679.927C860.781 678.559 860.909 677.113 860.722 675.69C860.536 674.268 860.04 672.903 859.269 671.693C858.498 670.483 857.471 669.457 856.261 668.687L864.303 634.751L847.282 640.971L842.255 672.243C841.096 674.362 840.754 676.833 841.295 679.187C841.836 681.541 843.221 683.615 845.189 685.016C847.157 686.417 849.57 687.047 851.971 686.788C854.372 686.528 856.595 685.396 858.218 683.607Z" fill="#9E616A"/>
<path d="M881.584 476.989H871.826C871.826 476.989 861.091 484.797 862.067 493.58C863.043 502.364 851.333 578.487 851.333 588.247C851.333 598.006 847.429 600.934 847.429 606.79C847.429 612.645 849.381 616.549 847.429 619.477C845.478 622.405 841.574 639.972 842.55 646.804C843.117 651.34 843.117 655.93 842.55 660.467H860.115C860.115 660.467 877.681 600.934 881.584 598.006C883.259 596.728 884.645 595.111 885.654 593.262C886.663 591.412 887.271 589.371 887.439 587.271C887.439 584.343 885.487 584.343 890.367 580.439C895.246 576.535 892.318 558.968 892.318 558.968L899.149 541.401L881.584 476.989Z" fill="#E4E4E4"/>
<path d="M1157.64 928H622.334C622.155 928 621.977 927.966 621.811 927.897C621.645 927.829 621.494 927.728 621.367 927.602C621.24 927.475 621.139 927.325 621.07 927.159C621.001 926.993 620.966 926.815 620.966 926.636C620.966 926.456 621.001 926.279 621.07 926.113C621.139 925.947 621.24 925.797 621.367 925.67C621.494 925.543 621.645 925.443 621.811 925.374C621.977 925.306 622.155 925.271 622.334 925.272H1157.64C1157.82 925.271 1157.99 925.306 1158.16 925.374C1158.33 925.443 1158.48 925.543 1158.6 925.67C1158.73 925.797 1158.83 925.947 1158.9 926.113C1158.97 926.279 1159 926.456 1159 926.636C1159 926.815 1158.97 926.993 1158.9 927.159C1158.83 927.325 1158.73 927.475 1158.6 927.602C1158.48 927.728 1158.33 927.829 1158.16 927.897C1157.99 927.966 1157.82 928 1157.64 928Z" fill="#CACACA"/>
</g>
<defs>
<filter id="filter0_d_156_133" x="0" y="0" width="1330.37" height="1074" filterUnits="userSpaceOnUse" color-interpolation-filters="sRGB">
<feFlood flood-opacity="0" result="BackgroundImageFix"/>
<feColorMatrix in="SourceAlpha" type="matrix" values="0 0 0 0 0 0 0 0 0 0 0 0 0 0 0 0 0 0 127 0" result="hardAlpha"/>
<feMorphology radius="16" operator="dilate" in="SourceAlpha" result="effect1_dropShadow_156_133"/>
<feOffset dy="4"/>
<feGaussianBlur stdDeviation="50"/>
<feComposite in2="hardAlpha" operator="out"/>
<feColorMatrix type="matrix" values="0 0 0 0 0.0166667 0 0 0 0 0.0166667 0 0 0 0 0.0166667 0 0 0 0.1 0"/>
<feBlend mode="luminosity" in2="BackgroundImageFix" result="effect1_dropShadow_156_133"/>
<feBlend mode="normal" in="SourceGraphic" in2="effect1_dropShadow_156_133" result="shape"/>
</filter>
<clipPath id="clip0_156_133">
<rect width="959" height="782" fill="white" transform="translate(200 146)"/>
</clipPath>
</defs>
</svg>
