<svg width="1331" height="1074" viewBox="0 0 1331 1074" fill="none" xmlns="http://www.w3.org/2000/svg">
<g filter="url(#filter0_d_157_221)">
<rect x="116" y="112" width="1098.37" height="842" fill="#FAFBFB"/>
</g>
<g clip-path="url(#clip0_157_221)">
<path d="M852.763 835.351H434.325C420.135 835.335 406.531 829.695 396.497 819.669C386.464 809.643 380.82 796.05 380.804 781.871V290.826C380.82 276.647 386.464 263.053 396.497 253.027C406.531 243.001 420.135 237.362 434.325 237.345H823.613L906.284 303.189V781.871C906.268 796.05 900.624 809.643 890.59 819.669C880.556 829.695 866.952 835.335 852.763 835.351Z" fill="#E6E6E6"/>
<path d="M546.248 265.127C536.143 265.139 526.455 269.155 519.31 276.295C512.165 283.434 508.146 293.115 508.134 303.212V794.257C508.146 804.354 512.165 814.034 519.31 821.174C526.455 828.314 536.143 832.33 546.248 832.341H964.686C974.79 832.33 984.478 828.314 991.623 821.174C998.769 814.034 1002.79 804.354 1002.8 794.257V322.992L930.146 265.127H546.248Z" fill="white"/>
<path d="M765.457 395.524H484.866C483.694 395.525 482.534 395.296 481.452 394.849C480.369 394.402 479.386 393.746 478.557 392.919C477.728 392.092 477.071 391.11 476.622 390.029C476.174 388.948 475.943 387.789 475.943 386.618C475.943 385.448 476.174 384.289 476.622 383.208C477.071 382.127 477.728 381.144 478.557 380.317C479.386 379.49 480.369 378.834 481.452 378.387C482.534 377.941 483.694 377.711 484.866 377.712H765.457C767.82 377.712 770.087 378.651 771.759 380.321C773.43 381.991 774.369 384.256 774.369 386.618C774.369 388.98 773.43 391.246 771.759 392.916C770.087 394.586 767.82 395.524 765.457 395.524Z" fill="#CCCCCC"/>
<path d="M802.222 425.581H484.866C483.695 425.581 482.536 425.351 481.455 424.903C480.373 424.456 479.391 423.8 478.563 422.973C477.736 422.146 477.079 421.164 476.631 420.084C476.183 419.003 475.953 417.845 475.953 416.675C475.953 415.506 476.183 414.348 476.631 413.267C477.079 412.187 477.736 411.205 478.563 410.378C479.391 409.551 480.373 408.895 481.455 408.447C482.536 408 483.695 407.77 484.866 407.77H802.222C803.392 407.77 804.551 408 805.632 408.447C806.714 408.895 807.696 409.551 808.524 410.378C809.351 411.205 810.008 412.187 810.456 413.267C810.904 414.348 811.134 415.506 811.134 416.675C811.134 417.845 810.904 419.003 810.456 420.084C810.008 421.164 809.351 422.146 808.524 422.973C807.696 423.8 806.714 424.456 805.632 424.903C804.551 425.351 803.392 425.581 802.222 425.581Z" fill="#CCCCCC"/>
<path d="M765.457 530.225H484.866C483.694 530.227 482.534 529.997 481.452 529.55C480.369 529.103 479.386 528.447 478.557 527.62C477.728 526.793 477.071 525.811 476.622 524.73C476.174 523.649 475.943 522.49 475.943 521.319C475.943 520.149 476.174 518.99 476.622 517.909C477.071 516.828 477.728 515.846 478.557 515.019C479.386 514.191 480.369 513.536 481.452 513.089C482.534 512.642 483.694 512.412 484.866 512.414H765.457C767.82 512.414 770.087 513.352 771.759 515.022C773.43 516.692 774.369 518.957 774.369 521.319C774.369 523.681 773.43 525.947 771.759 527.617C770.087 529.287 767.82 530.225 765.457 530.225Z" fill="#000080"/>
<path d="M802.222 560.282H484.866C483.695 560.282 482.536 560.052 481.455 559.605C480.373 559.157 479.391 558.501 478.563 557.674C477.736 556.847 477.079 555.865 476.631 554.785C476.183 553.704 475.953 552.546 475.953 551.377C475.953 550.207 476.183 549.049 476.631 547.968C477.079 546.888 477.736 545.906 478.563 545.079C479.391 544.252 480.373 543.596 481.455 543.149C482.536 542.701 483.695 542.471 484.866 542.471H802.222C803.392 542.471 804.551 542.701 805.632 543.149C806.714 543.596 807.696 544.252 808.524 545.079C809.351 545.906 810.008 546.888 810.456 547.968C810.904 549.049 811.134 550.207 811.134 551.377C811.134 552.546 810.904 553.704 810.456 554.785C810.008 555.865 809.351 556.847 808.524 557.674C807.696 558.501 806.714 559.157 805.632 559.605C804.551 560.052 803.392 560.282 802.222 560.282Z" fill="#CCCCCC"/>
<path d="M765.457 664.927H484.866C482.502 664.927 480.235 663.989 478.563 662.319C476.892 660.648 475.953 658.383 475.953 656.021C475.953 653.659 476.892 651.394 478.563 649.724C480.235 648.054 482.502 647.115 484.866 647.115H765.457C767.82 647.115 770.087 648.054 771.759 649.724C773.43 651.394 774.369 653.659 774.369 656.021C774.369 658.383 773.43 660.648 771.759 662.319C770.087 663.989 767.82 664.927 765.457 664.927Z" fill="#CCCCCC"/>
<path d="M802.221 694.984H484.866C483.694 694.985 482.534 694.756 481.452 694.309C480.369 693.862 479.386 693.206 478.557 692.379C477.728 691.552 477.071 690.57 476.622 689.489C476.174 688.408 475.943 687.249 475.943 686.078C475.943 684.908 476.174 683.749 476.622 682.668C477.071 681.587 477.728 680.604 478.557 679.777C479.386 678.95 480.369 678.294 481.452 677.847C482.534 677.4 483.694 677.171 484.866 677.172H802.221C804.585 677.172 806.852 678.111 808.524 679.781C810.195 681.451 811.134 683.716 811.134 686.078C811.134 688.44 810.195 690.705 808.524 692.376C806.852 694.046 804.585 694.984 802.221 694.984Z" fill="#CCCCCC"/>
<path d="M904.675 305.308H839.916C837.575 305.308 835.257 304.848 833.094 303.952C830.932 303.057 828.966 301.745 827.311 300.091C825.656 298.437 824.343 296.474 823.447 294.313C822.551 292.152 822.09 289.836 822.09 287.496V239.703C822.09 239.494 822.149 239.289 822.261 239.112C822.372 238.934 822.531 238.792 822.719 238.701C822.908 238.61 823.118 238.574 823.326 238.597C823.535 238.619 823.732 238.701 823.896 238.83L905.366 303.322C905.548 303.466 905.68 303.662 905.744 303.884C905.809 304.106 905.803 304.343 905.727 304.561C905.651 304.779 905.509 304.968 905.32 305.102C905.131 305.236 904.906 305.308 904.675 305.308Z" fill="#E6E6E6"/>
<path d="M498.125 279.574C498.125 303.751 490.95 327.385 477.508 347.487C464.066 367.589 444.96 383.257 422.606 392.509C400.253 401.761 375.656 404.182 351.925 399.465C328.195 394.748 306.397 383.106 289.288 366.011C272.18 348.915 260.528 327.134 255.808 303.422C251.088 279.709 253.511 255.131 262.77 232.795C272.029 210.458 287.709 191.367 307.826 177.935C327.944 164.503 351.596 157.334 375.791 157.334C408.233 157.344 439.343 170.226 462.283 193.148C485.223 216.071 498.115 247.157 498.125 279.574Z" fill="white"/>
<path d="M432.332 300.49C430.996 378.669 314.617 378.657 313.292 300.488C314.628 222.311 431.007 222.324 432.332 300.49Z" fill="#353030"/>
<path d="M370.449 324.756L370.387 322.534C385.717 324.579 389.019 305.594 373.559 312.692L377.088 286.921L379.291 287.223L376.289 309.144C392.568 306.723 386.547 326.978 370.449 324.756Z" fill="white"/>
<path d="M402.169 289.113H390.189V291.336H402.169V289.113Z" fill="white"/>
<path d="M364.356 289.113H352.377V291.336H364.356V289.113Z" fill="white"/>
<path d="M392.106 383.645C394.442 367.898 375.992 371.01 366.227 370.854C364.653 370.859 363.099 371.215 361.68 371.895C360.26 372.576 359.011 373.564 358.022 374.789C357.033 376.013 356.331 377.442 355.965 378.972C355.599 380.502 355.579 382.095 355.907 383.634C348.349 385.968 341.35 389.826 335.343 394.969C360.658 403.789 388.166 404.094 413.67 395.835C407.453 390.256 400.094 386.096 392.106 383.645Z" fill="#E6E6E6"/>
<path d="M344.829 272.36C355.859 265.99 369.236 270.877 380.63 273.549C402.248 280.19 432.563 271.874 435.192 246.142C437.928 222.211 405.165 208.874 394.694 232.692L397.743 232.294C363.782 181.862 304.709 183.774 305.097 253.11C304.971 255.252 308.308 255.244 308.433 253.108C307.182 212.25 334.244 184.321 372.497 210.578C381.251 216.961 388.335 225.414 394.862 233.976C398.846 238.438 399.712 219.225 418.779 224.257C439.764 232.381 432.917 262.406 414.16 268.997C390.985 280.828 365.886 257.889 343.145 269.48C342.779 269.711 342.517 270.075 342.414 270.496C342.312 270.916 342.376 271.36 342.595 271.733C342.813 272.107 343.168 272.381 343.585 272.498C344.002 272.615 344.448 272.566 344.829 272.36Z" fill="#2F2E41"/>
<path d="M375.791 405.148C344.2 405.121 313.779 393.196 290.596 371.751C267.414 350.306 253.173 320.917 250.714 289.446C248.255 257.974 257.758 226.732 277.329 201.952C296.9 177.172 325.1 160.674 356.305 155.748C387.51 150.823 419.426 157.832 445.688 175.377C471.95 192.923 490.629 219.716 497.998 250.413C505.367 281.11 500.885 313.454 485.447 340.995C470.008 368.536 444.747 389.25 414.702 399.006C402.137 403.089 389.004 405.162 375.791 405.148ZM375.791 160.668C352.251 160.664 329.239 167.637 309.664 180.703C290.09 193.769 274.833 212.342 265.823 234.073C256.813 255.804 254.455 279.717 259.046 302.787C263.638 325.858 274.973 347.049 291.619 363.682C308.264 380.315 329.472 391.642 352.56 396.23C375.648 400.818 399.579 398.461 421.327 389.458C443.075 380.455 461.662 365.21 474.738 345.65C487.814 326.091 494.792 303.096 494.789 279.574C494.753 248.049 482.204 217.825 459.896 195.534C437.587 173.242 407.341 160.703 375.791 160.668Z" fill="#CCCCCC"/>
<path d="M1088.66 530.722C1088.66 556.526 1080.49 581.669 1065.32 602.552C1050.15 623.435 1028.76 638.987 1004.21 646.983C1003.47 647.216 1002.74 647.45 1002 647.672C998.815 648.65 995.59 649.483 992.309 650.195C986.371 651.482 980.345 652.318 974.281 652.695C971.646 652.873 968.995 652.962 966.33 652.962C952.557 652.975 938.882 650.661 925.882 646.116C925.504 645.983 925.126 645.85 924.759 645.716C903.696 638.115 885.125 624.883 871.07 607.462C857.015 590.041 848.014 569.099 845.049 546.919C842.084 524.739 845.269 502.171 854.255 481.675C863.242 461.178 877.686 443.54 896.014 430.681C914.342 417.822 935.85 410.237 958.195 408.751C980.54 407.266 1002.86 411.937 1022.74 422.256C1042.61 432.574 1059.26 448.145 1070.89 467.271C1082.51 486.397 1088.66 508.344 1088.66 530.722Z" fill="white"/>
<path d="M963.399 611.711C996.271 611.711 1022.92 585.083 1022.92 552.236C1022.92 519.389 996.271 492.762 963.399 492.762C930.527 492.762 903.879 519.389 903.879 552.236C903.879 585.083 930.527 611.711 963.399 611.711Z" fill="#353030"/>
<path d="M966.874 584.281L966.936 582.059C962.798 581.944 959.15 581.684 956.408 579.683C955.631 579.083 954.992 578.324 954.535 577.455C954.078 576.587 953.814 575.63 953.76 574.651C953.712 574.052 953.802 573.451 954.025 572.893C954.247 572.335 954.595 571.836 955.042 571.434C956.862 569.899 959.79 570.396 961.924 571.373L963.764 572.217L960.235 546.446L958.032 546.747L961.033 568.669C958.134 567.817 955.447 568.184 953.606 569.737C952.9 570.353 952.345 571.125 951.986 571.991C951.628 572.857 951.474 573.794 951.537 574.729C951.602 576.045 951.955 577.331 952.569 578.497C953.184 579.663 954.047 580.68 955.096 581.478C958.619 584.05 963.196 584.178 966.874 584.281Z" fill="white"/>
<path d="M947.134 548.638H935.154V550.86H947.134V548.638Z" fill="white"/>
<path d="M984.946 548.638H972.967V550.86H984.946V548.638Z" fill="white"/>
<path d="M980.309 635.382C980.467 634.651 980.549 633.906 980.554 633.159C980.55 630.361 979.435 627.678 977.455 625.699C975.474 623.72 972.79 622.606 969.989 622.602H954.419C951.618 622.605 948.932 623.718 946.951 625.697C944.97 627.676 943.856 630.36 943.854 633.159C943.853 633.91 943.935 634.659 944.098 635.393C938.221 637.243 932.665 639.991 927.628 643.538C926.649 644.216 925.682 644.95 924.759 645.717C925.126 645.85 925.504 645.983 925.882 646.117C938.882 650.661 952.557 652.976 966.33 652.962C968.999 652.962 971.649 652.873 974.281 652.695C980.345 652.318 986.372 651.482 992.309 650.195C995.59 649.484 998.815 648.65 1002 647.672C995.703 642.11 988.316 637.924 980.309 635.382Z" fill="#E6E6E6"/>
<path d="M978.308 651.284C976.864 651.39 975.475 651.877 974.281 652.695C980.345 652.318 986.372 651.482 992.309 650.195L978.308 651.284Z" fill="#2F2E41"/>
<path d="M1017.38 538.108L913.981 500.311C913.433 500.11 912.929 499.803 912.499 499.408C912.069 499.013 911.721 498.537 911.475 498.008C911.229 497.479 911.089 496.906 911.065 496.323C911.04 495.739 911.131 495.157 911.332 494.609L911.682 492.956C919.757 470.9 946.522 457.018 968.596 465.087L1000.41 476.718C1022.49 484.787 1032.08 510.905 1024.01 532.962L1023.09 535.461C1022.89 536.009 1022.58 536.512 1022.18 536.942C1021.79 537.372 1021.31 537.719 1020.78 537.965C1020.25 538.211 1019.68 538.35 1019.09 538.375C1018.51 538.399 1017.93 538.308 1017.38 538.108Z" fill="#2F2E41"/>
<path d="M1022.95 540.205C878.832 545.519 866.239 527.425 910.151 498.972L919.466 481.844L1026.23 520.738L1022.95 540.205Z" fill="#2F2E41"/>
<path d="M994.691 474.006C995.487 471.361 992.079 467.999 987.079 466.498C982.079 464.996 977.381 465.922 976.585 468.567C975.79 471.212 979.198 474.574 984.197 476.076C989.197 477.577 993.895 476.651 994.691 474.006Z" fill="#2F2E41"/>
<path d="M966.33 656.296C952.181 656.311 938.133 653.933 924.779 649.263L923.618 648.849C895.646 638.748 872.165 619.061 857.353 593.289C842.54 567.517 837.356 537.33 842.721 508.098C848.087 478.865 863.654 452.482 886.656 433.64C909.657 414.797 938.601 404.718 968.339 405.193C998.078 405.668 1026.68 416.668 1049.07 436.235C1071.46 455.803 1086.17 482.67 1090.6 512.059C1095.03 541.448 1088.88 571.454 1073.25 596.739C1057.62 622.025 1033.52 640.952 1005.24 650.154C1004.45 650.405 1003.71 650.641 1002.95 650.867C999.791 651.838 996.44 652.711 993.016 653.452C986.913 654.775 980.719 655.634 974.486 656.022C971.809 656.203 969.058 656.296 966.33 656.296ZM966.33 411.815C938.328 411.819 911.224 421.689 889.785 439.689C868.346 457.689 853.946 482.666 849.116 510.227C844.286 537.788 849.337 566.169 863.379 590.377C877.422 614.584 899.557 633.069 925.892 642.581L926.994 642.973C939.636 647.393 952.936 649.644 966.33 649.628C968.908 649.628 971.508 649.541 974.056 649.369C979.958 649.001 985.824 648.188 991.604 646.936C994.842 646.234 998.009 645.41 1001.01 644.486C1001.76 644.264 1002.47 644.039 1003.17 643.814C1030.11 635.048 1053.03 616.968 1067.82 592.824C1082.61 568.681 1088.3 540.058 1083.86 512.101C1079.42 484.143 1065.14 458.685 1043.6 440.303C1022.06 421.92 994.659 411.819 966.33 411.815Z" fill="#CCCCCC"/>
<path d="M242.336 787.426C242.315 803.515 245.482 819.45 251.655 834.31C257.828 849.17 266.885 862.661 278.302 874.006C279.259 874.95 280.238 875.895 281.227 876.817C287.189 882.383 293.694 887.338 300.645 891.608C301.979 892.431 303.314 893.22 304.682 893.986C311.711 897.945 319.118 901.195 326.791 903.688C328.114 904.121 329.46 904.532 330.806 904.91C355.198 911.9 381.158 911.17 405.118 902.821C405.585 902.654 406.052 902.488 406.508 902.321C427.542 894.675 446.073 881.409 460.085 863.969C474.096 846.529 483.052 825.583 485.976 803.409C488.901 781.236 485.682 758.686 476.67 738.214C467.658 717.742 453.199 700.133 434.866 687.303C416.533 674.473 395.029 666.914 372.695 665.449C350.362 663.984 328.053 668.668 308.199 678.993C288.345 689.318 271.706 704.888 260.093 724.007C248.48 743.126 242.338 765.061 242.336 787.426Z" fill="white"/>
<path d="M338.836 847.341C338.895 856.812 335.401 865.961 329.044 872.985C322.754 879.883 313.39 884.457 303.94 882.565C295.239 880.822 288.168 873.222 289.05 864.029C289.196 862.038 289.775 860.102 290.747 858.358C291.719 856.613 293.059 855.101 294.676 853.927C296.292 852.754 298.145 851.946 300.106 851.561C302.067 851.176 304.088 851.224 306.028 851.699C314.294 853.843 317.588 865.747 310.7 871.334C309.047 872.675 306.673 870.33 308.341 868.977C312.894 865.283 311.488 857.203 305.991 855.176C299.593 852.817 292.813 857.891 292.353 864.428C291.807 872.178 297.749 878.015 305.036 879.389C312.918 880.876 320.734 876.844 326.075 871.28C332.197 864.818 335.574 856.238 335.499 847.341C335.514 846.909 335.696 846.5 336.008 846.199C336.319 845.899 336.735 845.731 337.167 845.731C337.6 845.731 338.016 845.899 338.327 846.199C338.638 846.5 338.821 846.909 338.836 847.341Z" fill="#2F2E41"/>
<path d="M371.414 868.534C404.286 868.534 430.934 841.907 430.934 809.06C430.934 776.213 404.286 749.585 371.414 749.585C338.542 749.585 311.894 776.213 311.894 809.06C311.894 841.907 338.542 868.534 371.414 868.534Z" fill="#353030"/>
<path d="M368.369 834.437L368.307 832.214C372.445 832.099 376.093 831.84 378.834 829.839C379.611 829.239 380.25 828.479 380.707 827.611C381.164 826.743 381.429 825.786 381.483 824.807C381.531 824.208 381.44 823.606 381.218 823.049C380.995 822.491 380.647 821.992 380.201 821.59C378.381 820.054 375.453 820.551 373.319 821.529L371.478 822.372L375.008 796.602L377.211 796.903L374.209 818.825C377.109 817.973 379.796 818.34 381.636 819.893C382.343 820.509 382.897 821.281 383.256 822.146C383.615 823.012 383.769 823.95 383.705 824.885C383.64 826.201 383.288 827.487 382.673 828.653C382.059 829.819 381.196 830.836 380.146 831.634C376.624 834.206 372.047 834.334 368.369 834.437Z" fill="white"/>
<path d="M400.088 798.794H388.109V801.016H400.088V798.794Z" fill="white"/>
<path d="M362.276 798.794H350.297V801.016H362.276V798.794Z" fill="white"/>
<path d="M330.806 904.91C355.198 911.9 381.158 911.17 405.118 902.821C405.585 902.654 406.052 902.487 406.508 902.321C400.862 897.968 394.476 894.671 387.658 892.586C388.14 890.877 388.132 889.067 387.635 887.363C386.961 885.202 385.606 883.317 383.772 881.987C381.939 880.658 379.725 879.955 377.46 879.984H362.957C360.696 879.953 358.485 880.654 356.655 881.982C354.826 883.31 353.474 885.193 352.804 887.352C352.307 889.06 352.299 890.873 352.782 892.586C346.775 894.423 341.1 897.203 335.966 900.82C334.932 901.543 333.931 902.298 332.964 903.087C332.229 903.676 331.507 904.287 330.806 904.91Z" fill="#E6E6E6"/>
<path d="M418.041 802.75C418.041 812.774 422.979 821.087 429.396 822.531C430.05 822.678 430.717 822.752 431.387 822.753C438.738 822.753 444.732 813.785 444.732 802.75C444.732 796.35 442.719 790.649 439.594 786.993C438.509 785.681 437.175 784.596 435.668 783.803C434.346 783.114 432.878 782.752 431.387 782.748C429.338 782.773 427.35 783.442 425.703 784.659C421.177 787.859 418.041 794.76 418.041 802.75Z" fill="#000080"/>
<path d="M299.044 802.75C299.044 811.374 302.691 818.731 307.807 821.542C309.208 822.326 310.784 822.743 312.389 822.753C312.746 822.753 313.103 822.731 313.457 822.687C320.307 821.876 325.735 813.252 325.735 802.75C325.735 794.338 322.254 787.126 317.338 784.181C315.851 783.259 314.139 782.763 312.389 782.748C310.898 782.752 309.43 783.114 308.108 783.803C306.597 784.6 305.259 785.688 304.171 787.004C301.056 790.66 299.044 796.361 299.044 802.75Z" fill="#000080"/>
<path d="M308.64 819.625C308.904 819.624 309.165 819.561 309.401 819.44C309.636 819.319 309.84 819.144 309.994 818.929C310.149 818.714 310.25 818.466 310.289 818.204C310.328 817.942 310.305 817.675 310.22 817.424C307.032 807.951 306.073 797.87 307.418 787.965C308.762 778.061 312.374 768.6 317.973 760.317C323.572 752.034 331.007 745.153 339.7 740.208C348.393 735.264 358.11 732.388 368.096 731.806C378.082 731.224 388.067 732.951 397.277 736.852C406.486 740.753 414.671 746.723 421.196 754.299C427.721 761.875 432.41 770.852 434.898 780.533C437.386 790.214 437.607 800.338 435.543 810.118C435.498 810.332 435.495 810.553 435.535 810.768C435.576 810.984 435.658 811.189 435.777 811.372C435.897 811.556 436.052 811.714 436.232 811.837C436.413 811.961 436.616 812.048 436.831 812.093C437.045 812.138 437.266 812.141 437.482 812.101C437.697 812.06 437.902 811.978 438.086 811.859C438.269 811.739 438.428 811.585 438.551 811.404C438.675 811.223 438.762 811.02 438.807 810.806C440.979 800.524 440.748 789.879 438.133 779.7C435.518 769.521 430.589 760.082 423.729 752.116C416.869 744.151 408.263 737.873 398.58 733.771C388.897 729.67 378.398 727.854 367.899 728.467C357.4 729.079 347.184 732.103 338.044 737.302C328.904 742.502 321.088 749.737 315.202 758.446C309.316 767.155 305.52 777.103 304.107 787.517C302.695 797.931 303.705 808.53 307.059 818.49C307.171 818.821 307.383 819.108 307.667 819.311C307.95 819.515 308.29 819.624 308.64 819.625Z" fill="#000080"/>
<path d="M401.314 770.526C403.671 773.741 402.509 778.073 400.026 780.845C396.794 784.451 391.642 784.679 387.167 784.009C382.147 783.258 376.822 780.908 371.739 782.492C367.407 783.842 364.316 787.768 359.816 788.754C355.824 789.629 351.051 788.471 349.652 784.22C348.98 782.177 352.2 781.302 352.869 783.334C353.775 786.084 357.683 786.029 359.922 785.267C363.51 784.047 366.276 781.077 369.803 779.658C373.962 777.986 378.474 778.741 382.708 779.694C386.698 780.592 391.291 781.923 395.267 780.246C398.208 779.004 400.549 775.095 398.433 772.209C397.163 770.476 400.057 768.811 401.314 770.526Z" fill="white"/>
<path d="M364.67 913C352.902 913.01 341.19 911.364 329.881 908.113C328.552 907.74 327.155 907.315 325.753 906.856C317.873 904.293 310.266 900.955 303.045 896.891C301.691 896.132 300.332 895.331 298.894 894.446C291.756 890.058 285.074 884.968 278.949 879.253C277.938 878.311 276.937 877.344 275.958 876.378C256.695 857.187 244.184 832.268 240.305 805.366C236.426 778.463 241.388 751.029 254.445 727.185C267.503 703.341 287.951 684.374 312.717 673.134C337.484 661.895 365.232 658.989 391.792 664.853C418.353 670.717 442.292 685.035 460.013 705.656C477.735 726.277 488.281 752.086 490.069 779.208C491.856 806.33 484.788 833.299 469.926 856.064C455.064 878.828 433.21 896.16 407.649 905.454C407.19 905.621 406.715 905.791 406.24 905.96C392.88 910.635 378.825 913.015 364.67 913ZM364.67 668.52C341.118 668.521 318.097 675.505 298.52 688.588C278.942 701.671 263.691 720.264 254.695 742.013C245.7 763.763 243.365 787.69 247.987 810.766C252.608 833.843 263.979 855.029 280.658 871.645C281.581 872.556 282.537 873.478 283.503 874.379C289.304 879.793 295.632 884.613 302.393 888.768C303.755 889.607 305.037 890.362 306.314 891.078C313.153 894.928 320.358 898.089 327.822 900.517C329.142 900.949 330.447 901.346 331.708 901.7C355.441 908.505 380.701 907.798 404.015 899.674L405.363 899.189C431.654 889.627 453.733 871.114 467.722 846.903C481.712 822.691 486.718 794.329 481.86 766.796C477.003 739.264 462.594 714.321 441.163 696.349C419.732 678.376 392.649 668.523 364.67 668.52Z" fill="#CCCCCC"/>
</g>
<defs>
<filter id="filter0_d_157_221" x="0" y="0" width="1330.37" height="1074" filterUnits="userSpaceOnUse" color-interpolation-filters="sRGB">
<feFlood flood-opacity="0" result="BackgroundImageFix"/>
<feColorMatrix in="SourceAlpha" type="matrix" values="0 0 0 0 0 0 0 0 0 0 0 0 0 0 0 0 0 0 127 0" result="hardAlpha"/>
<feMorphology radius="16" operator="dilate" in="SourceAlpha" result="effect1_dropShadow_157_221"/>
<feOffset dy="4"/>
<feGaussianBlur stdDeviation="50"/>
<feComposite in2="hardAlpha" operator="out"/>
<feColorMatrix type="matrix" values="0 0 0 0 0.0166667 0 0 0 0 0.0166667 0 0 0 0 0.0166667 0 0 0 0.1 0"/>
<feBlend mode="luminosity" in2="BackgroundImageFix" result="effect1_dropShadow_157_221"/>
<feBlend mode="normal" in="SourceGraphic" in2="effect1_dropShadow_157_221" result="shape"/>
</filter>
<clipPath id="clip0_157_221">
<rect width="853" height="759" fill="white" transform="translate(239 154)"/>
</clipPath>
</defs>
</svg>
